<svg xmlns="http://www.w3.org/2000/svg" viewBox="0 0 396 396" style="enable-background:new 0 0 396 396" xml:space="preserve"><path style="fill:#957856" d="M198 0v32h166v332H198v32h198V0H198zm0 0"/><path style="fill:#a78966" d="M32 364V32h166V0H0v396h198v-32H32zm0 0"/><path style="fill:#a78966" d="M260.424 72.016H135.577c-35.049 0-63.561 28.512-63.561 63.561v124.846c0 35.053 28.512 63.561 63.561 63.561h124.847c35.052 0 63.56-28.508 63.56-63.561V135.577c0-35.049-28.508-63.561-63.56-63.561zm36.142 188.407c0 19.929-16.214 36.143-36.142 36.143H135.577c-19.925 0-36.139-16.214-36.139-36.143V135.577c0-19.925 16.214-36.139 36.139-36.139h124.847c19.928 0 36.142 16.213 36.142 36.139v124.846z"/><path style="fill:#a78966" d="M264.982 146.525c-8.471 0-15.359-6.888-15.359-15.354 0-8.467 6.888-15.355 15.359-15.355 8.466 0 15.354 6.888 15.354 15.355s-6.888 15.354-15.354 15.354zM197.998 133.106c-35.779 0-64.892 29.113-64.892 64.892 0 35.783 29.113 64.896 64.892 64.896 35.783 0 64.896-29.113 64.896-64.896 0-35.779-29.113-64.892-64.896-64.892zm0 102.371c-20.655 0-37.475-16.816-37.475-37.479 0-20.655 16.82-37.467 37.475-37.467 20.663 0 37.471 16.812 37.471 37.467 0 20.663-16.808 37.479-37.471 37.479z"/></svg>