<svg xmlns="http://www.w3.org/2000/svg" viewBox="0 0 511.816 511.816" style="enable-background:new 0 0 511.816 511.816" xml:space="preserve"><path style="fill:#ffe100" d="m509.11 110.859-11.947 4.267c-8.533 19.627-32.427 38.4-54.613 46.933v8.533c0 140.8-91.307 258.56-213.333 285.013-8.533 1.707-4.267 3.413 0 4.267 133.973-14.507 238.933-138.24 238.933-289.28v-8.533c23.04-8.533 35.84-29.013 42.667-49.493-.001-.854-.854-1.707-1.707-1.707" transform="translate(1)"/><path style="fill:#ffe100" d="M331.616 59.659c-51.2.853-85.333 49.493-85.333 105.813v13.653c-74.24-13.653-151.04-46.933-179.2-76.8-32.427 63.147-13.653 90.453 25.6 119.467-26.453 0-31.573 6.827-48.64-7.68-1.707-.853-3.413 0-2.56 1.707 14.507 52.907 46.933 80.213 85.333 92.16-34.987 0-41.813 16.213-65.707 0-1.707-.853-3.413.853-2.56 1.707 18.773 52.053 39.253 57.173 93.867 57.173-27.307 20.48-46.933 40.96-116.053 42.667-2.56 0-4.267 3.413-1.707 5.12 25.6 21.333 88.747 37.547 177.493 37.547 17.92 0-16.213-1.707 0-5.12C334.176 420.62 425.482 302.86 425.482 162.06v-8.533c23.04-8.533 48.64-29.013 55.467-49.493 0-.853-.853-2.56-1.707-1.707l-36.693 17.067c-.853 0-1.707-.853-.853-1.707 51.2-42.667 21.333-11.093 36.693-56.32 0-.853-.853-1.707-1.707-1.707-23.04 9.387-42.667 18.773-59.733 23.893-2.56.853-5.973.853-8.533-.853-11.093-5.975-54.613-23.041-76.8-23.041" transform="translate(1)"/><path style="fill:#fff" d="M92.683 221.792c-39.253-29.013-58.88-56.32-25.6-119.467 8.533 8.533 20.48 17.067 35.84 26.453-22.187-14.507-41.813-30.72-61.44-52.053-32.427 63.147 3.413 116.054 42.667 145.067" transform="translate(1)"/><path style="fill:#ffa800" d="m492.043 102.325-11.947 4.267c-8.533 19.627-32.427 38.4-54.613 46.933v8.533c0 140.8-91.307 258.56-213.333 285.013-8.533 1.707-4.267 3.413 0 4.267 133.973-14.507 238.933-138.24 238.933-289.28v-8.533c23.04-8.533 35.84-29.013 42.667-49.493 0-.853-.854-1.707-1.707-1.707" transform="translate(1)"/><path style="fill:#fff" d="M33.803 414.645c-1.707-1.707-.853-5.12 2.56-5.12 69.12-1.707 88.747-22.187 116.053-42.667-54.613 0-75.947-5.973-93.867-57.173-.853-1.707.853-2.56 2.56-1.707 24.747 15.36 31.573 0 65.707 0-38.4-11.093-70.827-39.253-85.333-91.307-8.533-2.56-15.36-6.827-22.187-12.8-1.707-.853-3.413 0-2.56 1.707 14.507 52.907 64 91.307 102.4 102.4-34.987 0-58.027 5.12-82.773-10.24-2.56-1.707-4.267-.853-3.413.853 18.773 52.053 56.32 68.267 110.933 68.267-27.307 20.48-64 40.96-133.12 42.667-2.56 0-4.267 3.413-1.707 5.12 25.6 21.333 88.747 37.547 177.493 37.547h7.68c-79.359-2.56-135.679-17.92-160.426-37.547" transform="translate(1)"/><path d="M187.55 460.725c-84.48 0-152.747-14.507-183.467-39.253-3.413-3.413-5.12-7.68-3.413-12.8 1.707-4.267 5.973-7.68 11.093-7.68 50.347-.853 82.773-12.8 107.52-27.307-47.787-5.973-77.653-29.013-93.013-72.533-1.707-4.267 0-8.533 3.413-11.093s8.533-2.56 11.947-.853c12.8 8.533 25.6 10.24 40.96 10.24-32.427-19.627-62.293-52.053-74.24-92.16-.853-4.267.853-8.533 4.267-11.093 4.267-2.56 8.533-1.707 11.947.853 9.387 7.68 19.627 12.8 34.987 15.36-33.28-34.133-53.76-84.48-24.747-139.947 1.707-1.707 3.413-3.413 6.827-4.267 2.56 0 5.12.853 7.68 2.56 52.907 55.467 101.547 81.067 190.293 98.133v-3.413c-.854-62.293 47.786-113.493 108.372-114.347 23.893 0 57.173 17.067 70.827 24.747.853 0 1.707.853 1.707 0 17.067-5.12 37.547-13.653 61.44-23.893 3.413-1.707 7.68-.853 10.24 1.707 2.56 2.56 3.413 5.973 1.707 9.387-4.267 11.947-11.093 24.747-21.333 36.693l17.067-5.973c3.413-.853 7.68 0 10.24 2.56 2.56 2.56 3.413 6.827 2.56 10.24-7.68 24.747-23.04 42.667-41.813 52.053v3.413c0 23.893-2.56 46.933-7.68 69.973-.853 4.267-5.973 7.68-10.24 6.827s-7.68-5.973-6.827-10.24c5.12-21.333 6.827-44.373 6.827-66.56v-8.533c0-3.413 2.56-6.827 5.12-7.68 16.213-5.973 25.6-18.773 31.573-29.867l-33.28 11.093c-4.267 1.707-9.387 0-11.093-4.267-.853-4.267 0-9.387 3.413-11.947 13.653-11.093 23.893-23.04 31.573-35.84-17.067 6.827-32.427 12.8-45.227 17.067-5.12 1.707-10.24.853-15.36-1.707-9.387-5.12-40.96-22.187-60.587-22.187h-.853c-51.2.853-92.16 44.373-92.16 97.28v13.653c0 2.56-.853 5.12-3.413 6.827-1.707 1.707-4.267 1.707-6.827 1.707-93.867-17.067-145.92-41.813-200.533-95.573-25.6 64.853 27.307 110.08 45.227 122.88 3.413 2.56 4.267 5.973 3.413 9.387-.853 3.413-5.12 5.973-8.533 5.973-17.067 0-35.84-1.707-52.907-9.387 18.773 39.253 57.173 68.267 89.6 77.653 4.267.853 6.827 5.12 5.973 9.387-.853 4.267-4.267 7.68-8.533 7.68-6.827 0-13.653 0-20.48.853-17.92.853-34.133.853-49.493-4.267 17.067 32.427 46.933 46.08 95.573 46.08 3.413 0 6.827 2.56 8.533 5.973.853 3.413 0 7.68-3.413 9.387-27.307 20.48-61.44 39.253-120.32 43.52 28.16 13.653 80.213 26.453 157.867 26.453 98.133 0 186.027-60.587 229.547-157.013 1.707-4.267 6.827-5.973 11.093-4.267 4.267 1.707 5.973 6.827 4.267 11.093C386.376 396.725 292.51 460.725 187.55 460.725zM15.176 407.819zm17.067-104.107zm-17.92-93.867zm11.093-7.68zm470.187-91.306zm-7.68-43.52z"/><path d="M443.55 264.459c0-5.12-3.413-8.533-8.533-8.533-5.12 0-8.533 3.413-8.533 8.533s3.413 8.533 8.533 8.533c5.119 0 8.533-3.413 8.533-8.533"/></svg>